# xmcd
#
# Track frame offsets:
#	150
#	11571
#	23157
#	45268
#	57809
#	75825
#	86840
#	95812
#	98091
#	111565
#	122248
#	137506
#
# Disc length: 1920 seconds
#
# Revision: 0
# Processed by: cddbd v1.5.2PL0 Copyright (c) Steve Scherf et al.
# Submitted via: dBpowerAMP V4.0
#
DISCID=90077e0c
DTITLE=Memphis Slim - HCF Boogie (Hot Club de France, Paris, 2 dec 1980) 
DYEAR=1980
DGENRE=Blues
TTITLE0=Wish me well
TTITLE1=The way you look tonight
TTITLE2=I like the young people
TTITLE3=44 blues
TTITLE4=bye bye Baby
TTITLE5=All by myself
TTITLE6=Cow cow blues
TTITLE7=The entertainer
TTITLE8=How long blues
TTITLE9=My babe
TTITLE10=Christina
TTITLE11=Boogie at the hot club
EXTD=
EXTT0=
EXTT1=
EXTT2=
EXTT3=
EXTT4=
EXTT5=
EXTT6=
EXTT7=
EXTT8=
EXTT9=
EXTT10=
EXTT11=
PLAYORDER=
